<svg xmlns="http://www.w3.org/2000/svg" xmlns:xlink="http://www.w3.org/1999/xlink" style="margin:auto;background:#f1f2f3;display:block;z-index:1;position:relative" width="1779" height="842" preserveAspectRatio="xMidYMid" viewBox="0 0 1779 842">
    <g transform="translate(889.5,421) scale(1,1) translate(-889.5,-421)"><path id="path0" d="M 765.3584220417405 327.4403263493237
c 0 30.53101332557322 -7.470354324342384 8.769546380749755 -16.23990070509214 8.769546380749755
S 732.8786206315561 357.9713396748969 732.8786206315561 327.4403263493237
s 7.470354324342384 -8.769546380749755 16.23990070509214 -8.769546380749755
S 765.3584220417405 296.9093130237505 765.3584220417405 327.4403263493237
z" fill="none" stroke="none"></path>
        <circle cx="0" cy="0" r="1.5701606758563154" fill="#e91c26">
            <animateMotion begin="-3.7302319324170563s" dur="10s" repeatCount="indefinite">
                <mpath xlink:href="#path0"></mpath>
            </animateMotion>
        </circle><path id="path1" d="M 651.4150518586061 317.03630161309553
c 0 28.470199187356272 -6.9661125671190876 8.17761040487893 -15.143722971998017 8.17761040487893
S 621.1276059146101 345.5065008004518 621.1276059146101 317.03630161309553
s 6.9661125671190876 -8.17761040487893 15.143722971998017 -8.17761040487893
S 651.4150518586061 288.56610242573925 651.4150518586061 317.03630161309553
z" fill="none" stroke="none"></path>
        <circle cx="0" cy="0" r="1.975309447308073" fill="#e91c26">
            <animateMotion begin="-2.650890911966477s" dur="10s" repeatCount="indefinite">
                <mpath xlink:href="#path1"></mpath>
            </animateMotion>
        </circle><path id="path2" d="M 1429.0448332327871 484.76000413304746
c 0 23.779645034989663 -5.818423785157044 6.830323573880009 -12.648747359037053 6.830323573880009
S 1403.747338514713 508.5396491680371 1403.747338514713 484.76000413304746
s 5.818423785157044 -6.830323573880009 12.648747359037053 -6.830323573880009
S 1429.0448332327871 460.9803590980578 1429.0448332327871 484.76000413304746
z" fill="none" stroke="none"></path>
        <circle cx="0" cy="0" r="2.94821211355894" fill="#e91c26">
            <animateMotion begin="-3.477150232446018s" dur="10s" repeatCount="indefinite">
                <mpath xlink:href="#path2"></mpath>
            </animateMotion>
        </circle><path id="path3" d="M 829.8643637135054 324.4824935653612
c 0 22.884496318762412 -5.599398035441866 6.573206389431757 -12.172604424873622 6.573206389431757
S 805.5191548637582 347.3669898841236 805.5191548637582 324.4824935653612
s 5.599398035441866 -6.573206389431757 12.172604424873622 -6.573206389431757
S 829.8643637135054 301.5979972465988 829.8643637135054 324.4824935653612
z" fill="none" stroke="none"></path>
        <circle cx="0" cy="0" r="2.5499791043216886" fill="#e91c26">
            <animateMotion begin="-1.041950050102518s" dur="10s" repeatCount="indefinite">
                <mpath xlink:href="#path3"></mpath>
            </animateMotion>
        </circle><path id="path4" d="M 1485.493994251793 745.3522978688964
c 0 28.656790975157328 -7.01176800455977 8.231205918396254 -15.242973922956025 8.231205918396254
S 1455.008046405881 774.0090888440537 1455.008046405881 745.3522978688964
s 7.01176800455977 -8.231205918396254 15.242973922956025 -8.231205918396254
S 1485.493994251793 716.695506893739 1485.493994251793 745.3522978688964
z" fill="none" stroke="none"></path>
        <circle cx="0" cy="0" r="1.562391355328713" fill="#e91c26">
            <animateMotion begin="-7.683187676534178s" dur="10s" repeatCount="indefinite">
                <mpath xlink:href="#path4"></mpath>
            </animateMotion>
        </circle><path id="path5" d="M 865.0009211781273 799.4174706157934
c 0 36.03521037667483 -8.817125943228948 10.350539150747027 -19.167665093975973 10.350539150747027
S 826.6655909901754 835.4526809924682 826.6655909901754 799.4174706157934
s 8.817125943228948 -10.350539150747027 19.167665093975973 -10.350539150747027
S 865.0009211781273 763.3822602391185 865.0009211781273 799.4174706157934
z" fill="none" stroke="none"></path>
        <circle cx="0" cy="0" r="2.0057540990819795" fill="#e91c26">
            <animateMotion begin="-2.7415428125756836s" dur="10s" repeatCount="indefinite">
                <mpath xlink:href="#path5"></mpath>
            </animateMotion>
        </circle><path id="path6" d="M 584.9950878577129 390.15779816192304
c 0 26.17537897036219 -6.4046140033864924 7.5184599170189275 -13.92307392040542 7.5184599170189275
S 557.1489400169021 416.33317713228524 557.1489400169021 390.15779816192304
s 6.4046140033864924 -7.5184599170189275 13.92307392040542 -7.5184599170189275
S 584.9950878577129 363.98241919156084 584.9950878577129 390.15779816192304
z" fill="none" stroke="none"></path>
        <circle cx="0" cy="0" r="1.5829472411029335" fill="#e91c26">
            <animateMotion begin="-0.9218885893526618s" dur="10s" repeatCount="indefinite">
                <mpath xlink:href="#path6"></mpath>
            </animateMotion>
        </circle><path id="path7" d="M 362.4824216222398 625.9743535117127
c 0 26.958833581738713 -6.596310344467982 7.743494752201545 -14.339805096669526 7.743494752201545
S 333.8028114289008 652.9331870934515 333.8028114289008 625.9743535117127
s 6.596310344467982 -7.743494752201545 14.339805096669526 -7.743494752201545
S 362.4824216222398 599.015519929974 362.4824216222398 625.9743535117127
z" fill="none" stroke="none"></path>
        <circle cx="0" cy="0" r="2.6974699282790464" fill="#e91c26">
            <animateMotion begin="-5.067184040612189s" dur="10s" repeatCount="indefinite">
                <mpath xlink:href="#path7"></mpath>
            </animateMotion>
        </circle><path id="path8" d="M 568.495945333131 433.1690825988538
c 0 24.453730197296444 -5.9833595163597675 7.023943780074511 -13.007303296434278 7.023943780074511
S 542.4813387402623 457.62281279615024 542.4813387402623 433.1690825988538
s 5.9833595163597675 -7.023943780074511 13.007303296434278 -7.023943780074511
S 568.495945333131 408.7153524015573 568.495945333131 433.1690825988538
z" fill="none" stroke="none"></path>
        <circle cx="0" cy="0" r="2.434661238132544" fill="#e91c26">
            <animateMotion begin="-5.988423029061877s" dur="10s" repeatCount="indefinite">
                <mpath xlink:href="#path8"></mpath>
            </animateMotion>
        </circle><path id="path9" d="M 1575.0973285092764 446.5444890676681
c 0 34.47441600094423 -8.435229447039545 9.902225872611641 -18.337455319651184 9.902225872611641
S 1538.4224178699742 481.01890506861236 1538.4224178699742 446.5444890676681
s 8.435229447039545 -9.902225872611641 18.337455319651184 -9.902225872611641
S 1575.0973285092764 412.07007306672386 1575.0973285092764 446.5444890676681
z" fill="none" stroke="none"></path>
        <circle cx="0" cy="0" r="2.822983795208203" fill="#e91c26">
            <animateMotion begin="-6.561908426205316s" dur="10s" repeatCount="indefinite">
                <mpath xlink:href="#path9"></mpath>
            </animateMotion>
        </circle><path id="path10" d="M 227.68655031881636 127.02499072309212
c 0 24.903631565373832 -6.093441765995724 7.15317076877759 -13.246612534773314 7.15317076877759
S 201.19332524926975 151.92862228846596 201.19332524926975 127.02499072309212
s 6.093441765995724 -7.15317076877759 13.246612534773314 -7.15317076877759
S 227.68655031881636 102.12135915771829 227.68655031881636 127.02499072309212
z" fill="none" stroke="none"></path>
        <circle cx="0" cy="0" r="2.0015302613124994" fill="#e91c26">
            <animateMotion begin="-6.526509074140179s" dur="10s" repeatCount="indefinite">
                <mpath xlink:href="#path10"></mpath>
            </animateMotion>
        </circle><path id="path11" d="M 464.2656472891709 112.7923065545096
c 0 19.86311304272117 -4.860123404070073 5.705362256951825 -10.5654856610219 5.705362256951825
S 443.13467596712707 132.65541959723078 443.13467596712707 112.7923065545096
s 4.860123404070073 -5.705362256951825 10.5654856610219 -5.705362256951825
S 464.2656472891709 92.92919351178843 464.2656472891709 112.7923065545096
z" fill="none" stroke="none"></path>
        <circle cx="0" cy="0" r="1.8233468100084858" fill="#e91c26">
            <animateMotion begin="-2.1037379888218855s" dur="10s" repeatCount="indefinite">
                <mpath xlink:href="#path11"></mpath>
            </animateMotion>
        </circle><path id="path12" d="M 1183.4375443335218 115.48653620460773
c 0 35.33421204624185 -8.645605075144282 10.149188566473724 -18.794793641618003 10.149188566473724
S 1145.8479570502857 150.8207482508496 1145.8479570502857 115.48653620460773
s 8.645605075144282 -10.149188566473724 18.794793641618003 -10.149188566473724
S 1183.4375443335218 80.15232415836587 1183.4375443335218 115.48653620460773
z" fill="none" stroke="none"></path>
        <circle cx="0" cy="0" r="2.5552193378942434" fill="#e91c26">
            <animateMotion begin="-0.024563696318562478s" dur="10s" repeatCount="indefinite">
                <mpath xlink:href="#path12"></mpath>
            </animateMotion>
        </circle><path id="path13" d="M 828.1983387266446 582.7554568489626
c 0 33.56421262106149 -8.212520109408663 9.640784476262345 -17.853304585671008 9.640784476262345
S 792.4917295553025 616.3196694700241 792.4917295553025 582.7554568489626
s 8.212520109408663 -9.640784476262345 17.853304585671008 -9.640784476262345
S 828.1983387266446 549.191244227901 828.1983387266446 582.7554568489626
z" fill="none" stroke="none"></path>
        <circle cx="0" cy="0" r="2.5556920918782216" fill="#e91c26">
            <animateMotion begin="-6.102108181801979s" dur="10s" repeatCount="indefinite">
                <mpath xlink:href="#path13"></mpath>
            </animateMotion>
        </circle><path id="path14" d="M 698.5108188371007 150.08553773421554
c 0 19.8149788153417 -4.848345880349564 5.691536468236445 -10.539882348586008 5.691536468236445
S 677.4310541399286 169.90051654955724 677.4310541399286 150.08553773421554
s 4.848345880349564 -5.691536468236445 10.539882348586008 -5.691536468236445
S 698.5108188371007 130.27055891887383 698.5108188371007 150.08553773421554
z" fill="none" stroke="none"></path>
        <circle cx="0" cy="0" r="2.780164199127987" fill="#e91c26">
            <animateMotion begin="-4.709328671197732s" dur="10s" repeatCount="indefinite">
                <mpath xlink:href="#path14"></mpath>
            </animateMotion>
        </circle><path id="path15" d="M 458.7975191091019 822.1872601644654
c 0 32.285474876557124 -7.899637469795891 9.273487464543004 -17.173124934338894 9.273487464543004
S 424.45126924042415 854.4727350410226 424.45126924042415 822.1872601644654
s 7.899637469795891 -9.273487464543004 17.173124934338894 -9.273487464543004
S 458.7975191091019 789.9017852879083 458.7975191091019 822.1872601644654
z" fill="none" stroke="none"></path>
        <circle cx="0" cy="0" r="1.6935606259274236" fill="#e91c26">
            <animateMotion begin="-8.840562726817572s" dur="10s" repeatCount="indefinite">
                <mpath xlink:href="#path15"></mpath>
            </animateMotion>
        </circle><path id="path16" d="M 409.68900513746536 385.41918004643503
c 0 37.19682213097792 -9.101350095877574 10.684193590812807 -19.78554368669038 10.684193590812807
S 370.11791776408455 422.61600217741295 370.11791776408455 385.41918004643503
s 9.101350095877574 -10.684193590812807 19.78554368669038 -10.684193590812807
S 409.68900513746536 348.2223579154571 409.68900513746536 385.41918004643503
z" fill="none" stroke="none"></path>
        <circle cx="0" cy="0" r="2.1577096136434233" fill="#e91c26">
            <animateMotion begin="-1.34225532678373s" dur="10s" repeatCount="indefinite">
                <mpath xlink:href="#path16"></mpath>
            </animateMotion>
        </circle><path id="path17" d="M 348.6279515983188 525.9961828715941
c 0 31.637394091536077 -7.741064511758826 9.087336600760363 -16.828401112519188 9.087336600760363
S 314.9711493732804 557.6335769631302 314.9711493732804 525.9961828715941
s 7.741064511758826 -9.087336600760363 16.828401112519188 -9.087336600760363
S 348.6279515983188 494.35878878005803 348.6279515983188 525.9961828715941
z" fill="none" stroke="none"></path>
        <circle cx="0" cy="0" r="2.159654854571664" fill="#e91c26">
            <animateMotion begin="-5.994063722493584s" dur="10s" repeatCount="indefinite">
                <mpath xlink:href="#path17"></mpath>
            </animateMotion>
        </circle><path id="path18" d="M 1733.4171367266567 111.20100232989289
c 0 24.89135282600608 -6.090437393597233 7.149643896831535 -13.240081290428767 7.149643896831535
S 1706.936974145799 136.09235515589896 1706.936974145799 111.20100232989289
s 6.090437393597233 -7.149643896831535 13.240081290428767 -7.149643896831535
S 1733.4171367266567 86.3096495038868 1733.4171367266567 111.20100232989289
z" fill="none" stroke="none"></path>
        <circle cx="0" cy="0" r="1.868474477820846" fill="#e91c26">
            <animateMotion begin="-0.8471736456459489s" dur="10s" repeatCount="indefinite">
                <mpath xlink:href="#path18"></mpath>
            </animateMotion>
        </circle><path id="path19" d="M 1343.6386530797379 111.02925476053804
c 0 37.20615274216988 -9.10363311776497 10.686873659984965 -19.790506777749933 10.686873659984965
S 1304.057639524238 148.23540750270791 1304.057639524238 111.02925476053804
s 9.10363311776497 -10.686873659984965 19.790506777749933 -10.686873659984965
S 1343.6386530797379 73.82310201836816 1343.6386530797379 111.02925476053804
z" fill="none" stroke="none"></path>
        <circle cx="0" cy="0" r="1.8744982513593413" fill="#e91c26">
            <animateMotion begin="-7.336450983549934s" dur="10s" repeatCount="indefinite">
                <mpath xlink:href="#path19"></mpath>
            </animateMotion>
        </circle><path id="path20" d="M 522.5334594524977 286.73074431033683
c 0 35.62430253366809 -8.716584662493256 10.23251242988339 -18.949097092376647 10.23251242988339
S 484.63526526774444 322.3550468440049 484.63526526774444 286.73074431033683
s 8.716584662493256 -10.23251242988339 18.949097092376647 -10.23251242988339
S 522.5334594524977 251.10644177666873 522.5334594524977 286.73074431033683
z" fill="none" stroke="none"></path>
        <circle cx="0" cy="0" r="1.9288730034290862" fill="#e91c26">
            <animateMotion begin="-8.723429152534095s" dur="10s" repeatCount="indefinite">
                <mpath xlink:href="#path20"></mpath>
            </animateMotion>
        </circle><path id="path21" d="M 20.886196965005187 697.6956209612832
c 0 22.128460917245217 -5.414410649964255 6.356047284740648 -11.770457934704904 6.356047284740648
S -2.6547189044046213 719.8240818785284 -2.6547189044046213 697.6956209612832
s 5.414410649964255 -6.356047284740648 11.770457934704904 -6.356047284740648
S 20.886196965005187 675.567160044038 20.886196965005187 697.6956209612832
z" fill="none" stroke="none"></path>
        <circle cx="0" cy="0" r="2.510687970671863" fill="#e91c26">
            <animateMotion begin="-5.862526010054905s" dur="10s" repeatCount="indefinite">
                <mpath xlink:href="#path21"></mpath>
            </animateMotion>
        </circle><path id="path22" d="M 639.337396460565 367.56779276165264
c 0 21.175940395092525 -5.181347117948171 6.082450964547853 -11.263798082496024 6.082450964547853
S 616.8098002955729 388.7437331567452 616.8098002955729 367.56779276165264
s 5.181347117948171 -6.082450964547853 11.263798082496024 -6.082450964547853
S 639.337396460565 346.3918523665601 639.337396460565 367.56779276165264
z" fill="none" stroke="none"></path>
        <circle cx="0" cy="0" r="1.6871277621892415" fill="#e91c26">
            <animateMotion begin="-0.8500577520591523s" dur="10s" repeatCount="indefinite">
                <mpath xlink:href="#path22"></mpath>
            </animateMotion>
        </circle><path id="path23" d="M 309.6261005682429 732.0609153971137
c 0 35.22780903784552 -8.619570296494114 10.118626000232222 -18.738196296726336 10.118626000232222
S 272.1497079747902 767.2887244349592 272.1497079747902 732.0609153971137
s 8.619570296494114 -10.118626000232222 18.738196296726336 -10.118626000232222
S 309.6261005682429 696.8331063592682 309.6261005682429 732.0609153971137
z" fill="none" stroke="none"></path>
        <circle cx="0" cy="0" r="2.859527946254286" fill="#e91c26">
            <animateMotion begin="-1.555316231620567s" dur="10s" repeatCount="indefinite">
                <mpath xlink:href="#path23"></mpath>
            </animateMotion>
        </circle><path id="path24" d="M 1307.8008625670452 559.0334707076289
c 0 18.9370944446852 -4.633544385401698 5.439378191558515 -10.072922576960213 5.439378191558515
S 1287.6550174131246 577.9705651523141 1287.6550174131246 559.0334707076289
s 4.633544385401698 -5.439378191558515 10.072922576960213 -5.439378191558515
S 1307.8008625670452 540.0963762629437 1307.8008625670452 559.0334707076289
z" fill="none" stroke="none"></path>
        <circle cx="0" cy="0" r="2.735019142094589" fill="#e91c26">
            <animateMotion begin="-1.950032865764293s" dur="10s" repeatCount="indefinite">
                <mpath xlink:href="#path24"></mpath>
            </animateMotion>
        </circle><path id="path25" d="M 851.8088532501861 310.9544299052266
c 0 36.51650216110304 -8.93488882665287 10.48878253563598 -19.42367136228885 10.48878253563598
S 812.9615105256084 347.4709320663297 812.9615105256084 310.9544299052266
s 8.93488882665287 -10.48878253563598 19.42367136228885 -10.48878253563598
S 851.8088532501861 274.43792774412356 851.8088532501861 310.9544299052266
z" fill="none" stroke="none"></path>
        <circle cx="0" cy="0" r="1.5040860474888413" fill="#e91c26">
            <animateMotion begin="-3.12151956490728s" dur="10s" repeatCount="indefinite">
                <mpath xlink:href="#path25"></mpath>
            </animateMotion>
        </circle><path id="path26" d="M 551.5116265757125 794.2743598398283
c 0 24.82364796674553 -6.073871311012203 7.13019675640563 -13.204068067417833 7.13019675640563
S 525.103490440877 819.0980078065738 525.103490440877 794.2743598398283
s 6.073871311012203 -7.13019675640563 13.204068067417833 -7.13019675640563
S 551.5116265757125 769.4507118730828 551.5116265757125 794.2743598398283
z" fill="none" stroke="none"></path>
        <circle cx="0" cy="0" r="2.5357843311963815" fill="#e91c26">
            <animateMotion begin="-8.034344254144159s" dur="10s" repeatCount="indefinite">
                <mpath xlink:href="#path26"></mpath>
            </animateMotion>
        </circle><path id="path27" d="M 1227.7106624847488 418.1620908334534
c 0 36.18309378540901 -8.853310181536244 10.39301630006429 -19.246326481600533 10.39301630006429
S 1189.2180095215476 454.34518461886245 1189.2180095215476 418.1620908334534
s 8.853310181536244 -10.39301630006429 19.246326481600533 -10.39301630006429
S 1227.7106624847488 381.9789970480444 1227.7106624847488 418.1620908334534
z" fill="none" stroke="none"></path>
        <circle cx="0" cy="0" r="1.7914734898856324" fill="#e91c26">
            <animateMotion begin="-6.461921295621504s" dur="10s" repeatCount="indefinite">
                <mpath xlink:href="#path27"></mpath>
            </animateMotion>
        </circle><path id="path28" d="M 585.3966846356042 485.7034161972824
c 0 24.325318243391933 -5.951939570191643 6.987059495442364 -12.938999065634007 6.987059495442364
S 559.5186865043362 510.0287344406744 559.5186865043362 485.7034161972824
s 5.951939570191643 -6.987059495442364 12.938999065634007 -6.987059495442364
S 585.3966846356042 461.37809795389046 585.3966846356042 485.7034161972824
z" fill="none" stroke="none"></path>
        <circle cx="0" cy="0" r="2.5644104661639493" fill="#e91c26">
            <animateMotion begin="-2.668381360050003s" dur="10s" repeatCount="indefinite">
                <mpath xlink:href="#path28"></mpath>
            </animateMotion>
        </circle><path id="path29" d="M 495.4555674506108 559.9557534804773
c 0 19.25038960301603 -4.710201711376262 5.529367226398222 -10.239568937774484 5.529367226398222
S 474.9764295750618 579.2061430834933 474.9764295750618 559.9557534804773
s 4.710201711376262 -5.529367226398222 10.239568937774484 -5.529367226398222
S 495.4555674506108 540.7053638774612 495.4555674506108 559.9557534804773
z" fill="none" stroke="none"></path>
        <circle cx="0" cy="0" r="2.698351903614115" fill="#e91c26">
            <animateMotion begin="-0.007541100809449475s" dur="10s" repeatCount="indefinite">
                <mpath xlink:href="#path29"></mpath>
            </animateMotion>
        </circle><path id="path30" d="M 234.84908566977902 230.68823871055605
c 0 31.46990624931172 -7.700083443980526 9.03922839075975 -16.739311834740278 9.03922839075975
S 201.37046200029846 262.15814495986774 201.37046200029846 230.68823871055605
s 7.700083443980526 -9.03922839075975 16.739311834740278 -9.03922839075975
S 234.84908566977902 199.21833246124433 234.84908566977902 230.68823871055605
z" fill="none" stroke="none"></path>
        <circle cx="0" cy="0" r="2.092626857125509" fill="#e91c26">
            <animateMotion begin="-6.675561592364831s" dur="10s" repeatCount="indefinite">
                <mpath xlink:href="#path30"></mpath>
            </animateMotion>
        </circle><path id="path31" d="M 947.0698030271892 265.54840956504574
c 0 37.39366985999517 -9.1495149657435 10.740734959785847 -19.890249925529346 10.740734959785847
S 907.2893031761305 302.9420794250409 907.2893031761305 265.54840956504574
s 9.1495149657435 -10.740734959785847 19.890249925529346 -10.740734959785847
S 947.0698030271892 228.1547397050506 947.0698030271892 265.54840956504574
z" fill="none" stroke="none"></path>
        <circle cx="0" cy="0" r="2.0828006215922428" fill="#e91c26">
            <animateMotion begin="-0.46808584631283345s" dur="10s" repeatCount="indefinite">
                <mpath xlink:href="#path31"></mpath>
            </animateMotion>
        </circle><path id="path32" d="M 1520.4367535159267 748.0484790486819
c 0 29.67814763033997 -7.261674420189566 8.52457431935297 -15.786248739542536 8.52457431935297
S 1488.8642560368417 777.7266266790218 1488.8642560368417 748.0484790486819
s 7.261674420189566 -8.52457431935297 15.786248739542536 -8.52457431935297
S 1520.4367535159267 718.370331418342 1520.4367535159267 748.0484790486819
z" fill="none" stroke="none"></path>
        <circle cx="0" cy="0" r="1.5737587708876077" fill="#e91c26">
            <animateMotion begin="-3.846967635198908s" dur="10s" repeatCount="indefinite">
                <mpath xlink:href="#path32"></mpath>
            </animateMotion>
        </circle><path id="path33" d="M 960.8726072784364 740.4083688556847
c 0 34.221223087895716 -8.373277989591505 9.829500248650898 -18.202778238242402 9.829500248650898
S 924.4670508019515 774.6295919435804 924.4670508019515 740.4083688556847
s 8.373277989591505 -9.829500248650898 18.202778238242402 -9.829500248650898
S 960.8726072784364 706.1871457677889 960.8726072784364 740.4083688556847
z" fill="none" stroke="none"></path>
        <circle cx="0" cy="0" r="2.0385979460813433" fill="#e91c26">
            <animateMotion begin="-5.889822174671632s" dur="10s" repeatCount="indefinite">
                <mpath xlink:href="#path33"></mpath>
            </animateMotion>
        </circle><path id="path34" d="M 1527.9875064540272 272.78954574593087
c 0 35.41184946271055 -8.66460146428024 10.171488675459415 -18.836090139739653 10.171488675459415
S 1490.315326174548 308.20139520864143 1490.315326174548 272.78954574593087
s 8.66460146428024 -10.171488675459415 18.836090139739653 -10.171488675459415
S 1527.9875064540272 237.3776962832203 1527.9875064540272 272.78954574593087
z" fill="none" stroke="none"></path>
        <circle cx="0" cy="0" r="2.077118023599997" fill="#e91c26">
            <animateMotion begin="-4.561799760556866s" dur="10s" repeatCount="indefinite">
                <mpath xlink:href="#path34"></mpath>
            </animateMotion>
        </circle><path id="path35" d="M 1132.8984986059643 453.9106535729813
c 0 27.78947342596006 -6.799552008479589 7.982082792562996 -14.781634801042586 7.982082792562996
S 1103.335229003879 481.70012699894136 1103.335229003879 453.9106535729813
s 6.799552008479589 -7.982082792562996 14.781634801042586 -7.982082792562996
S 1132.8984986059643 426.1211801470212 1132.8984986059643 453.9106535729813
z" fill="none" stroke="none"></path>
        <circle cx="0" cy="0" r="2.0379555605355195" fill="#e91c26">
            <animateMotion begin="-9.478176647452601s" dur="10s" repeatCount="indefinite">
                <mpath xlink:href="#path35"></mpath>
            </animateMotion>
        </circle><path id="path36" d="M 182.53136670504435 641.3029612966462
c 0 37.24102391996558 -9.11216542722562 10.696889849351814 -19.809055276577435 10.696889849351814
S 142.9132561518895 678.5439852166118 142.9132561518895 641.3029612966462
s 9.11216542722562 -10.696889849351814 19.809055276577435 -10.696889849351814
S 182.53136670504435 604.0619373766807 182.53136670504435 641.3029612966462
z" fill="none" stroke="none"></path>
        <circle cx="0" cy="0" r="2.65948405061214" fill="#e91c26">
            <animateMotion begin="-6.146129710341619s" dur="10s" repeatCount="indefinite">
                <mpath xlink:href="#path36"></mpath>
            </animateMotion>
        </circle><path id="path37" d="M 329.648986836241 47.97294344028741
c 0 35.05586271895426 -8.57749832485051 10.069237163954947 -18.646735488805458 10.069237163954947
S 292.3555158586301 83.02880615924167 292.3555158586301 47.97294344028741
s 8.57749832485051 -10.069237163954947 18.646735488805458 -10.069237163954947
S 329.648986836241 12.91708072133315 329.648986836241 47.97294344028741
z" fill="none" stroke="none"></path>
        <circle cx="0" cy="0" r="2.5897334297636787" fill="#e91c26">
            <animateMotion begin="-6.10433308942107s" dur="10s" repeatCount="indefinite">
                <mpath xlink:href="#path37"></mpath>
            </animateMotion>
        </circle><path id="path38" d="M 1307.5518638297726 712.7679832427399
c 0 25.62275400549658 -6.269397256664057 7.359727214344764 -13.62912447100882 7.359727214344764
S 1280.2936148877552 738.3907372482365 1280.2936148877552 712.7679832427399
s 6.269397256664057 -7.359727214344764 13.62912447100882 -7.359727214344764
S 1307.5518638297726 687.1452292372433 1307.5518638297726 712.7679832427399
z" fill="none" stroke="none"></path>
        <circle cx="0" cy="0" r="2.6887314582888466" fill="#e91c26">
            <animateMotion begin="-3.453012981868948s" dur="10s" repeatCount="indefinite">
                <mpath xlink:href="#path38"></mpath>
            </animateMotion>
        </circle><path id="path39" d="M 1476.7188856582256 299.61957645973195
c 0 25.12693625101192 -6.148080146524192 7.217311476354487 -13.365391622878679 7.217311476354487
S 1449.9881024124684 324.74651271074384 1449.9881024124684 299.61957645973195
s 6.148080146524192 -7.217311476354487 13.365391622878679 -7.217311476354487
S 1476.7188856582256 274.49264020872005 1476.7188856582256 299.61957645973195
z" fill="none" stroke="none"></path>
        <circle cx="0" cy="0" r="2.1210228393373267" fill="#e91c26">
            <animateMotion begin="-7.49653246150376s" dur="10s" repeatCount="indefinite">
                <mpath xlink:href="#path39"></mpath>
            </animateMotion>
        </circle><path id="path40" d="M 1393.7247846835435 680.0095460602861
c 0 18.962599873342963 -4.639785075392426 5.446704218938936 -10.086489294331361 5.446704218938936
S 1373.5518060948807 698.972145933629 1373.5518060948807 680.0095460602861
s 4.639785075392426 -5.446704218938936 10.086489294331361 -5.446704218938936
S 1393.7247846835435 661.0469461869432 1393.7247846835435 680.0095460602861
z" fill="none" stroke="none"></path>
        <circle cx="0" cy="0" r="2.044808680887399" fill="#e91c26">
            <animateMotion begin="-9.49466464792712s" dur="10s" repeatCount="indefinite">
                <mpath xlink:href="#path40"></mpath>
            </animateMotion>
        </circle><path id="path41" d="M 1709.4159555338522 58.16559490205148
c 0 24.787631989386874 -6.0650588910201915 7.1198517416324 -13.184910632652592 7.1198517416324
S 1683.046134268547 82.95322689143836 1683.046134268547 58.16559490205148
s 6.0650588910201915 -7.1198517416324 13.184910632652592 -7.1198517416324
S 1709.4159555338522 33.37796291266461 1709.4159555338522 58.16559490205148
z" fill="none" stroke="none"></path>
        <circle cx="0" cy="0" r="1.5200081246376085" fill="#e91c26">
            <animateMotion begin="-4.57556314830466s" dur="10s" repeatCount="indefinite">
                <mpath xlink:href="#path41"></mpath>
            </animateMotion>
        </circle><path id="path42" d="M 1256.3399145049332 694.5568287730399
c 0 36.5115690677847 -8.93368179318136 10.48736558329986 -19.421047376481223 10.48736558329986
S 1217.4978197519706 731.0683978408246 1217.4978197519706 694.5568287730399
s 8.93368179318136 -10.48736558329986 19.421047376481223 -10.48736558329986
S 1256.3399145049332 658.0452597052553 1256.3399145049332 694.5568287730399
z" fill="none" stroke="none"></path>
        <circle cx="0" cy="0" r="1.7769489800642422" fill="#e91c26">
            <animateMotion begin="-3.6788228140286705s" dur="10s" repeatCount="indefinite">
                <mpath xlink:href="#path42"></mpath>
            </animateMotion>
        </circle><path id="path43" d="M 1344.7373365723029 283.6784951270157
c 0 20.068317007814276 -4.910332884890726 5.7643038213934625 -10.674636706284188 5.7643038213934625
S 1323.3880631597344 303.74681213483 1323.3880631597344 283.6784951270157
s 4.910332884890726 -5.7643038213934625 10.674636706284188 -5.7643038213934625
S 1344.7373365723029 263.6101781192014 1344.7373365723029 283.6784951270157
z" fill="none" stroke="none"></path>
        <circle cx="0" cy="0" r="2.7272643774577543" fill="#e91c26">
            <animateMotion begin="-6.1890101974382805s" dur="10s" repeatCount="indefinite">
                <mpath xlink:href="#path43"></mpath>
            </animateMotion>
        </circle><path id="path44" d="M 770.1824114271582 612.2456499362669
c 0 28.345495862122373 -6.9356000513703675 8.141791364652171 -15.07739141602254 8.141791364652171
S 740.027628595113 640.5911457983892 740.027628595113 612.2456499362669
s 6.9356000513703675 -8.141791364652171 15.07739141602254 -8.141791364652171
S 770.1824114271582 583.9001540741446 770.1824114271582 612.2456499362669
z" fill="none" stroke="none"></path>
        <circle cx="0" cy="0" r="2.9518969284046204" fill="#e91c26">
            <animateMotion begin="-1.6231346112153866s" dur="10s" repeatCount="indefinite">
                <mpath xlink:href="#path44"></mpath>
            </animateMotion>
        </circle><path id="path45" d="M 1539.6053014461804 77.17128022312424
c 0 25.04082115037978 -6.127009430412073 7.192576287875044 -13.319585718287117 7.192576287875044
S 1512.9661300096063 102.21210137350403 1512.9661300096063 77.17128022312424
s 6.127009430412073 -7.192576287875044 13.319585718287117 -7.192576287875044
S 1539.6053014461804 52.13045907274446 1539.6053014461804 77.17128022312424
z" fill="none" stroke="none"></path>
        <circle cx="0" cy="0" r="1.9285826240438595" fill="#e91c26">
            <animateMotion begin="-8.104199182012602s" dur="10s" repeatCount="indefinite">
                <mpath xlink:href="#path45"></mpath>
            </animateMotion>
        </circle><path id="path46" d="M 789.4773001448357 244.6636732946589
c 0 22.774127189065474 -5.572392822856446 6.5415046181358285 -12.113897440992274 6.5415046181358285
S 765.2495052628512 267.4378004837244 765.2495052628512 244.6636732946589
s 5.572392822856446 -6.5415046181358285 12.113897440992274 -6.5415046181358285
S 789.4773001448357 221.88954610559344 789.4773001448357 244.6636732946589
z" fill="none" stroke="none"></path>
        <circle cx="0" cy="0" r="1.6648422234135611" fill="#e91c26">
            <animateMotion begin="-1.0656920014638627s" dur="10s" repeatCount="indefinite">
                <mpath xlink:href="#path46"></mpath>
            </animateMotion>
        </circle><path id="path47" d="M 1367.6438441980488 783.1593204787134
c 0 26.31638945097905 -6.439116567792745 7.558962927408876 -13.99807949520162 7.558962927408876
S 1339.6476852076455 809.4757099296925 1339.6476852076455 783.1593204787134
s 6.439116567792745 -7.558962927408876 13.99807949520162 -7.558962927408876
S 1367.6438441980488 756.8429310277344 1367.6438441980488 783.1593204787134
z" fill="none" stroke="none"></path>
        <circle cx="0" cy="0" r="2.457137353861499" fill="#e91c26">
            <animateMotion begin="-9.715887025164786s" dur="10s" repeatCount="indefinite">
                <mpath xlink:href="#path47"></mpath>
            </animateMotion>
        </circle><path id="path48" d="M 1555.612621048892 453.6337987064404
c 0 21.275826655789388 -5.205787373225062 6.111141699003334 -11.316929072228398 6.111141699003334
S 1532.978762904435 474.9096253622298 1532.978762904435 453.6337987064404
s 5.205787373225062 -6.111141699003334 11.316929072228398 -6.111141699003334
S 1555.612621048892 432.35797205065103 1555.612621048892 453.6337987064404
z" fill="none" stroke="none"></path>
        <circle cx="0" cy="0" r="2.8250313164643304" fill="#e91c26">
            <animateMotion begin="-4.416500509038459s" dur="10s" repeatCount="indefinite">
                <mpath xlink:href="#path48"></mpath>
            </animateMotion>
        </circle><path id="path49" d="M 1475.4467488253654 126.9023923414432
c 0 35.586206586984446 -8.70726331383662 10.221569977112555 -18.928833290949175 10.221569977112555
S 1437.5890822434671 162.48859892842765 1437.5890822434671 126.9023923414432
s 8.70726331383662 -10.221569977112555 18.928833290949175 -10.221569977112555
S 1475.4467488253654 91.31618575445876 1475.4467488253654 126.9023923414432
z" fill="none" stroke="none"></path>
        <circle cx="0" cy="0" r="2.2828169783666397" fill="#e91c26">
            <animateMotion begin="-0.025249679757735066s" dur="10s" repeatCount="indefinite">
                <mpath xlink:href="#path49"></mpath>
            </animateMotion>
        </circle><path id="path50" d="M 442.2895867312601 206.81830822187806
c 0 33.42288507195114 -8.177939964413575 9.600190393007242 -17.778130357420817 9.600190393007242
S 406.73332601641846 240.2411932938292 406.73332601641846 206.81830822187806
s 8.177939964413575 -9.600190393007242 17.778130357420817 -9.600190393007242
S 442.2895867312601 173.3954231499269 442.2895867312601 206.81830822187806
z" fill="none" stroke="none"></path>
        <circle cx="0" cy="0" r="1.6749215361420702" fill="#e91c26">
            <animateMotion begin="-1.3920654440118185s" dur="10s" repeatCount="indefinite">
                <mpath xlink:href="#path50"></mpath>
            </animateMotion>
        </circle><path id="path51" d="M 1059.4281642394 69.91801094565902
c 0 29.9022992765363 -7.316520035748243 8.588958302834895 -15.905478338583139 8.588958302834895
S 1027.6172075622337 99.82031022219532 1027.6172075622337 69.91801094565902
s 7.316520035748243 -8.588958302834895 15.905478338583139 -8.588958302834895
S 1059.4281642394 40.01571166912272 1059.4281642394 69.91801094565902
z" fill="none" stroke="none"></path>
        <circle cx="0" cy="0" r="2.4121851544939785" fill="#e91c26">
            <animateMotion begin="-6.9080212073049925s" dur="10s" repeatCount="indefinite">
                <mpath xlink:href="#path51"></mpath>
            </animateMotion>
        </circle><path id="path52" d="M 365.36542292473985 812.3640668900405
c 0 18.853818810233513 -4.613168432291179 5.415458594428776 -10.028627026719954 5.415458594428776
S 345.3081688712999 831.217885700274 345.3081688712999 812.3640668900405
s 4.613168432291179 -5.415458594428776 10.028627026719954 -5.415458594428776
S 365.36542292473985 793.510248079807 365.36542292473985 812.3640668900405
z" fill="none" stroke="none"></path>
        <circle cx="0" cy="0" r="2.2360087971929734" fill="#e91c26">
            <animateMotion begin="-5.951568322255052s" dur="10s" repeatCount="indefinite">
                <mpath xlink:href="#path52"></mpath>
            </animateMotion>
        </circle><path id="path53" d="M 83.02926426060691 438.0263872824858
c 0 25.32852993813408 -6.1974062614583385 7.275216046059789 -13.472622307518128 7.275216046059789
S 56.084019645570656 463.3549172206199 56.084019645570656 438.0263872824858
s 6.1974062614583385 -7.275216046059789 13.472622307518128 -7.275216046059789
S 83.02926426060691 412.69785734435175 83.02926426060691 438.0263872824858
z" fill="none" stroke="none"></path>
        <circle cx="0" cy="0" r="1.5022799775981563" fill="#e91c26">
            <animateMotion begin="-8.312980347273813s" dur="10s" repeatCount="indefinite">
                <mpath xlink:href="#path53"></mpath>
            </animateMotion>
        </circle><path id="path54" d="M 1657.671929873949 394.03495832540847
c 0 20.364145441663748 -4.982716437853895 5.849275818350226 -10.83199225620412 5.849275818350226
S 1636.0079453615408 414.39910376707223 1636.0079453615408 394.03495832540847
s 4.982716437853895 -5.849275818350226 10.83199225620412 -5.849275818350226
S 1657.671929873949 373.6708128837447 1657.671929873949 394.03495832540847
z" fill="none" stroke="none"></path>
        <circle cx="0" cy="0" r="2.634287896978935" fill="#e91c26">
            <animateMotion begin="-0.8704466220200491s" dur="10s" repeatCount="indefinite">
                <mpath xlink:href="#path54"></mpath>
            </animateMotion>
        </circle><path id="path55" d="M 1636.9180817652941 685.1943583406703
c 0 22.4472227916053 -5.492405576669381 6.447606546524927 -11.940012123194307 6.447606546524927
S 1613.0380575189056 707.6415811322756 1613.0380575189056 685.1943583406703
s 5.492405576669381 -6.447606546524927 11.940012123194307 -6.447606546524927
S 1636.9180817652941 662.747135549065 1636.9180817652941 685.1943583406703
z" fill="none" stroke="none"></path>
        <circle cx="0" cy="0" r="1.603029498367094" fill="#e91c26">
            <animateMotion begin="-8.216073405708444s" dur="10s" repeatCount="indefinite">
                <mpath xlink:href="#path55"></mpath>
            </animateMotion>
        </circle><path id="path56" d="M 860.0532252528342 506.222384328605
c 0 28.59362255770009 -6.996311902415979 8.213061798488324 -15.209373700904303 8.213061798488324
S 829.6344778510256 534.8160068863051 829.6344778510256 506.222384328605
s 6.996311902415979 -8.213061798488324 15.209373700904303 -8.213061798488324
S 860.0532252528342 477.62876177090493 860.0532252528342 506.222384328605
z" fill="none" stroke="none"></path>
        <circle cx="0" cy="0" r="2.2577600414869385" fill="#e91c26">
            <animateMotion begin="-7.749144015305587s" dur="10s" repeatCount="indefinite">
                <mpath xlink:href="#path56"></mpath>
            </animateMotion>
        </circle><path id="path57" d="M 492.7774446968634 724.1547160238182
c 0 23.97677404980691 -5.866657480271903 6.886945737710496 -12.753603217982398 6.886945737710496
S 467.2702382608986 748.1314900736251 467.2702382608986 724.1547160238182
s 5.866657480271903 -6.886945737710496 12.753603217982398 -6.886945737710496
S 492.7774446968634 700.1779419740113 492.7774446968634 724.1547160238182
z" fill="none" stroke="none"></path>
        <circle cx="0" cy="0" r="2.369961117858488" fill="#e91c26">
            <animateMotion begin="-0.566808687744178s" dur="10s" repeatCount="indefinite">
                <mpath xlink:href="#path57"></mpath>
            </animateMotion>
        </circle><path id="path58" d="M 1252.5851313965532 115.63515501973085
c 0 22.64109817825913 -5.5398431712761695 6.50329415758507 -12.04313732886124 6.50329415758507
S 1228.4988567388305 138.27625319798997 1228.4988567388305 115.63515501973085
s 5.5398431712761695 -6.50329415758507 12.04313732886124 -6.50329415758507
S 1252.5851313965532 92.99405684147172 1252.5851313965532 115.63515501973085
z" fill="none" stroke="none"></path>
        <circle cx="0" cy="0" r="2.761493881376044" fill="#e91c26">
            <animateMotion begin="-7.242777539893228s" dur="10s" repeatCount="indefinite">
                <mpath xlink:href="#path58"></mpath>
            </animateMotion>
        </circle><path id="path59" d="M 424.7374900482756 306.54372835513453
c 0 34.900447918871414 -8.539471299298324 10.024596742654555 -18.56406804195288 10.024596742654555
S 387.6093539643699 341.44417627400594 387.6093539643699 306.54372835513453
s 8.539471299298324 -10.024596742654555 18.56406804195288 -10.024596742654555
S 424.7374900482756 271.6432804362631 424.7374900482756 306.54372835513453
z" fill="none" stroke="none"></path>
        <circle cx="0" cy="0" r="2.240670399339747" fill="#e91c26">
            <animateMotion begin="-1.828250035387664s" dur="10s" repeatCount="indefinite">
                <mpath xlink:href="#path59"></mpath>
            </animateMotion>
        </circle><path id="path60" d="M 1507.0632835165238 238.23661500319815
c 0 27.232011112929854 -6.663151655291347 7.821960638820277 -14.485112294111623 7.821960638820277
S 1478.0930589283007 265.468626116128 1478.0930589283007 238.23661500319815
s 6.663151655291347 -7.821960638820277 14.485112294111623 -7.821960638820277
S 1507.0632835165238 211.0046038902683 1507.0632835165238 238.23661500319815
z" fill="none" stroke="none"></path>
        <circle cx="0" cy="0" r="2.3425040867148708" fill="#e91c26">
            <animateMotion begin="-3.7796342366795876s" dur="10s" repeatCount="indefinite">
                <mpath xlink:href="#path60"></mpath>
            </animateMotion>
        </circle><path id="path61" d="M 575.3331589720747 624.3560712163511
c 0 32.85712699893034 -8.039509797610615 9.437685414586374 -17.47719521219699 9.437685414586374
S 540.3787685476807 657.2131982152814 540.3787685476807 624.3560712163511
s 8.039509797610615 -9.437685414586374 17.47719521219699 -9.437685414586374
S 575.3331589720747 591.4989442174208 575.3331589720747 624.3560712163511
z" fill="none" stroke="none"></path>
        <circle cx="0" cy="0" r="1.9862368971650723" fill="#e91c26">
            <animateMotion begin="-0.6312799365873412s" dur="10s" repeatCount="indefinite">
                <mpath xlink:href="#path61"></mpath>
            </animateMotion>
        </circle><path id="path62" d="M 114.6089026056301 700.5367019547884
c 0 30.945288672837542 -7.571719568885781 8.888540363474613 -16.460259932360394 8.888540363474613
S 81.68838274090933 731.481990627626 81.68838274090933 700.5367019547884
s 7.571719568885781 -8.888540363474613 16.460259932360394 -8.888540363474613
S 114.6089026056301 669.5914132819508 114.6089026056301 700.5367019547884
z" fill="none" stroke="none"></path>
        <circle cx="0" cy="0" r="2.440964389802192" fill="#e91c26">
            <animateMotion begin="-8.820711641968783s" dur="10s" repeatCount="indefinite">
                <mpath xlink:href="#path62"></mpath>
            </animateMotion>
        </circle><path id="path63" d="M 1316.5949461699502 354.9391713523333
c 0 28.28149096391803 -6.919939278405475 8.123406978997732 -15.043346257403208 8.123406978997732
S 1286.5082536551436 383.2206623162513 1286.5082536551436 354.9391713523333
s 6.919939278405475 -8.123406978997732 15.043346257403208 -8.123406978997732
S 1316.5949461699502 326.65768038841526 1316.5949461699502 354.9391713523333
z" fill="none" stroke="none"></path>
        <circle cx="0" cy="0" r="2.9236666138457035" fill="#e91c26">
            <animateMotion begin="-5.273828914974774s" dur="10s" repeatCount="indefinite">
                <mpath xlink:href="#path63"></mpath>
            </animateMotion>
        </circle><path id="path64" d="M 757.4865062747992 442.0469854954355
c 0 27.844699861991522 -6.813064859848988 7.997945705040118 -14.811010564889106 7.997945705040118
S 727.864485145021 469.891685357427 727.864485145021 442.0469854954355
s 6.813064859848988 -7.997945705040118 14.811010564889106 -7.997945705040118
S 757.4865062747992 414.202285633444 757.4865062747992 442.0469854954355
z" fill="none" stroke="none"></path>
        <circle cx="0" cy="0" r="1.6057467923404616" fill="#e91c26">
            <animateMotion begin="-1.5674433326257975s" dur="10s" repeatCount="indefinite">
                <mpath xlink:href="#path64"></mpath>
            </animateMotion>
        </circle><path id="path65" d="M 240.5228945492301 147.03484734502405
c 0 31.381117515639204 -7.678358541060655 9.013725243853814 -16.69208378491447 9.013725243853814
S 207.13872697940116 178.41596486066325 207.13872697940116 147.03484734502405
s 7.678358541060655 -9.013725243853814 16.69208378491447 -9.013725243853814
S 240.5228945492301 115.65372982938484 240.5228945492301 147.03484734502405
z" fill="none" stroke="none"></path>
        <circle cx="0" cy="0" r="2.1641797628025006" fill="#e91c26">
            <animateMotion begin="-9.45496887761301s" dur="10s" repeatCount="indefinite">
                <mpath xlink:href="#path65"></mpath>
            </animateMotion>
        </circle><path id="path66" d="M 1557.834151924825 217.29751305842325
c 0 28.184776265093813 -6.896275043586783 8.095627225080138 -14.991902268666921 8.095627225080138
S 1527.850347387491 245.48228932351705 1527.850347387491 217.29751305842325
s 6.896275043586783 -8.095627225080138 14.991902268666921 -8.095627225080138
S 1557.834151924825 189.11273679332945 1557.834151924825 217.29751305842325
z" fill="none" stroke="none"></path>
        <circle cx="0" cy="0" r="2.7032806268383975" fill="#e91c26">
            <animateMotion begin="-3.600115495769791s" dur="10s" repeatCount="indefinite">
                <mpath xlink:href="#path66"></mpath>
            </animateMotion>
        </circle><path id="path67" d="M 788.4035255953137 408.75603688022795
c 0 36.33472114121076 -8.890410491998376 10.436568838432878 -19.326979330431254 10.436568838432878
S 749.7495669344511 445.0907580214387 749.7495669344511 408.75603688022795
s 8.890410491998376 -10.436568838432878 19.326979330431254 -10.436568838432878
S 788.4035255953137 372.4213157390172 788.4035255953137 408.75603688022795
z" fill="none" stroke="none"></path>
        <circle cx="0" cy="0" r="2.5563085887974637" fill="#e91c26">
            <animateMotion begin="-4.111508706681768s" dur="10s" repeatCount="indefinite">
                <mpath xlink:href="#path67"></mpath>
            </animateMotion>
        </circle><path id="path68" d="M 497.5772864748875 665.5757011595488
c 0 22.62963454624486 -5.537038240038635 6.500001412219269 -12.037039652257903 6.500001412219269
S 473.50320717037175 688.2053357057937 473.50320717037175 665.5757011595488
s 5.537038240038635 -6.500001412219269 12.037039652257903 -6.500001412219269
S 497.5772864748875 642.9460666133039 497.5772864748875 665.5757011595488
z" fill="none" stroke="none"></path>
        <circle cx="0" cy="0" r="1.6982953766191962" fill="#e91c26">
            <animateMotion begin="-8.331289711292234s" dur="10s" repeatCount="indefinite">
                <mpath xlink:href="#path68"></mpath>
            </animateMotion>
        </circle><path id="path69" d="M 719.0312676002948 339.2842546866095
c 0 19.4065024285723 -4.748399530395349 5.57420814437715 -10.322607674772499 5.57420814437715
S 698.3860522507498 358.6907571151818 698.3860522507498 339.2842546866095
s 4.748399530395349 -5.57420814437715 10.322607674772499 -5.57420814437715
S 719.0312676002948 319.87775225803716 719.0312676002948 339.2842546866095
z" fill="none" stroke="none"></path>
        <circle cx="0" cy="0" r="2.5476061303743336" fill="#e91c26">
            <animateMotion begin="-4.497114949799876s" dur="10s" repeatCount="indefinite">
                <mpath xlink:href="#path69"></mpath>
            </animateMotion>
        </circle><path id="path70" d="M 817.8570870395395 479.1000343046894
c 0 21.885402248159004 -5.3549388479537985 6.286232560641416 -11.641171408595214 6.286232560641416
S 794.574744222349 500.9854365528484 794.574744222349 479.1000343046894
s 5.3549388479537985 -6.286232560641416 11.641171408595214 -6.286232560641416
S 817.8570870395395 457.21463205653043 817.8570870395395 479.1000343046894
z" fill="none" stroke="none"></path>
        <circle cx="0" cy="0" r="1.8311377724243412" fill="#e91c26">
            <animateMotion begin="-5.114303085376046s" dur="10s" repeatCount="indefinite">
                <mpath xlink:href="#path70"></mpath>
            </animateMotion>
        </circle><path id="path71" d="M 1242.367767380482 648.3682444755275
c 0 19.385441574765636 -4.743246342761804 5.5681587501986405 -10.311405092960443 5.5681587501986405
S 1221.744957194561 667.7536860502931 1221.744957194561 648.3682444755275
s 4.743246342761804 -5.5681587501986405 10.311405092960443 -5.5681587501986405
S 1242.367767380482 628.9828029007618 1242.367767380482 648.3682444755275
z" fill="none" stroke="none"></path>
        <circle cx="0" cy="0" r="2.276133183455534" fill="#e91c26">
            <animateMotion begin="-4.490177659759067s" dur="10s" repeatCount="indefinite">
                <mpath xlink:href="#path71"></mpath>
            </animateMotion>
        </circle><path id="path72" d="M 1700.205148250283 748.8136222276186
c 0 26.88079657111516 -6.5772161822941335 7.721079866171375 -14.29829604846551 7.721079866171375
S 1671.6085561533519 775.6944187987338 1671.6085561533519 748.8136222276186
s 6.5772161822941335 -7.721079866171375 14.29829604846551 -7.721079866171375
S 1700.205148250283 721.9328256565034 1700.205148250283 748.8136222276186
z" fill="none" stroke="none"></path>
        <circle cx="0" cy="0" r="2.249075987129693" fill="#e91c26">
            <animateMotion begin="-6.690679479489596s" dur="10s" repeatCount="indefinite">
                <mpath xlink:href="#path72"></mpath>
            </animateMotion>
        </circle><path id="path73" d="M 1265.8917413097736 96.03591807527137
c 0 20.02029213485747 -4.898582118103423 5.7505094429909756 -10.6490915610944 5.7505094429909756
S 1244.593558187585 116.05621021012884 1244.593558187585 96.03591807527137
s 4.898582118103423 -5.7505094429909756 10.6490915610944 -5.7505094429909756
S 1265.8917413097736 76.0156259404139 1265.8917413097736 96.03591807527137
z" fill="none" stroke="none"></path>
        <circle cx="0" cy="0" r="2.857732283287345" fill="#e91c26">
            <animateMotion begin="-4.1588601574548s" dur="10s" repeatCount="indefinite">
                <mpath xlink:href="#path73"></mpath>
            </animateMotion>
        </circle><path id="path74" d="M 832.0590732438699 190.74347795919581
c 0 30.970699061307215 -7.577937004362402 8.895839092077605 -16.473776096440005 8.895839092077605
S 799.1115210509898 221.71417702050303 799.1115210509898 190.74347795919581
s 7.577937004362402 -8.895839092077605 16.473776096440005 -8.895839092077605
S 832.0590732438699 159.7727788978886 832.0590732438699 190.74347795919581
z" fill="none" stroke="none"></path>
        <circle cx="0" cy="0" r="2.13927938430938" fill="#e91c26">
            <animateMotion begin="-3.735721201345541s" dur="10s" repeatCount="indefinite">
                <mpath xlink:href="#path74"></mpath>
            </animateMotion>
        </circle><path id="path75" d="M 1147.3443810730753 608.9747702264324
c 0 25.462334871285737 -6.230145766378424 7.3136493779224985 -13.543795144300923 7.3136493779224985
S 1120.2567907844734 634.4371050977181 1120.2567907844734 608.9747702264324
s 6.230145766378424 -7.3136493779224985 13.543795144300923 -7.3136493779224985
S 1147.3443810730753 583.5124353551466 1147.3443810730753 608.9747702264324
z" fill="none" stroke="none"></path>
        <circle cx="0" cy="0" r="2.659028004376709" fill="#e91c26">
            <animateMotion begin="-7.3717232349402355s" dur="10s" repeatCount="indefinite">
                <mpath xlink:href="#path75"></mpath>
            </animateMotion>
        </circle><path id="path76" d="M 158.39048623616003 703.0224417067691
c 0 32.86368068969561 -8.04111336024467 9.439567857678528 -17.4806812179232 9.439567857678528
S 123.42912380031362 735.8861223964647 123.42912380031362 703.0224417067691
s 8.04111336024467 -9.439567857678528 17.4806812179232 -9.439567857678528
S 158.39048623616003 670.1587610170735 158.39048623616003 703.0224417067691
z" fill="none" stroke="none"></path>
        <circle cx="0" cy="0" r="1.7618864656534596" fill="#e91c26">
            <animateMotion begin="-8.134231652216501s" dur="10s" repeatCount="indefinite">
                <mpath xlink:href="#path76"></mpath>
            </animateMotion>
        </circle><path id="path77" d="M 1132.0126921155072 453.4888703309053
c 0 25.694690609905685 -6.286998766253518 7.380389856036739 -13.667388622290257 7.380389856036739
S 1104.6779148709268 479.183560940811 1104.6779148709268 453.4888703309053
s 6.286998766253518 -7.380389856036739 13.667388622290257 -7.380389856036739
S 1132.0126921155072 427.7941797209996 1132.0126921155072 453.4888703309053
z" fill="none" stroke="none"></path>
        <circle cx="0" cy="0" r="1.6515458729756307" fill="#e91c26">
            <animateMotion begin="-0.6704440351584173s" dur="10s" repeatCount="indefinite">
                <mpath xlink:href="#path77"></mpath>
            </animateMotion>
        </circle><path id="path78" d="M 1292.302462499638 325.98889219459664
c 0 28.066458143987603 -6.867324865018243 8.061642232847504 -14.928967097865746 8.061642232847504
S 1262.4445283039065 354.0553503385843 1262.4445283039065 325.98889219459664
s 6.867324865018243 -8.061642232847504 14.928967097865746 -8.061642232847504
S 1292.302462499638 297.922434050609 1292.302462499638 325.98889219459664
z" fill="none" stroke="none"></path>
        <circle cx="0" cy="0" r="2.370483761655733" fill="#e91c26">
            <animateMotion begin="-5.359527301947818s" dur="10s" repeatCount="indefinite">
                <mpath xlink:href="#path78"></mpath>
            </animateMotion>
        </circle><path id="path79" d="M 1324.9664242498352 698.2061379066012
c 0 36.724946898794286 -8.985891262470941 10.548654960291977 -19.53454622276292 10.548654960291977
S 1285.8973318043095 734.9310848053955 1285.8973318043095 698.2061379066012
s 8.985891262470941 -10.548654960291977 19.53454622276292 -10.548654960291977
S 1324.9664242498352 661.4811910078068 1324.9664242498352 698.2061379066012
z" fill="none" stroke="none"></path>
        <circle cx="0" cy="0" r="2.200191148181061" fill="#e91c26">
            <animateMotion begin="-3.475539723725627s" dur="10s" repeatCount="indefinite">
                <mpath xlink:href="#path79"></mpath>
            </animateMotion>
        </circle><path id="path80" d="M 686.7886016038999 578.510576902365
c 0 37.29662457126375 -9.12576984190496 10.71286024919278 -19.83863009109774 10.71286024919278
S 647.1113414217043 615.8072014736288 647.1113414217043 578.510576902365
s 9.12576984190496 -10.71286024919278 19.83863009109774 -10.71286024919278
S 686.7886016038999 541.2139523311012 686.7886016038999 578.510576902365
z" fill="none" stroke="none"></path>
        <circle cx="0" cy="0" r="2.30847586931764" fill="#e91c26">
            <animateMotion begin="-7.882493911488597s" dur="10s" repeatCount="indefinite">
                <mpath xlink:href="#path80"></mpath>
            </animateMotion>
        </circle><path id="path81" d="M 877.4029859299374 714.6897308528474
c 0 22.76569634992243 -5.570329957959743 6.539082994126655 -12.109412952086398 6.539082994126655
S 853.1841600257646 737.4554272027699 853.1841600257646 714.6897308528474
s 5.570329957959743 -6.539082994126655 12.109412952086398 -6.539082994126655
S 877.4029859299374 691.924034502925 877.4029859299374 714.6897308528474
z" fill="none" stroke="none"></path>
        <circle cx="0" cy="0" r="1.916575953299733" fill="#e91c26">
            <animateMotion begin="-6.693877048919243s" dur="10s" repeatCount="indefinite">
                <mpath xlink:href="#path81"></mpath>
            </animateMotion>
        </circle><path id="path82" d="M 411.47470032041053 838.1675637147628
c 0 21.31069199691978 -5.214318254565478 6.121156211881214 -11.33547446644669 6.121156211881214
S 388.8037513875172 859.4782557116826 388.8037513875172 838.1675637147628
s 5.214318254565478 -6.121156211881214 11.33547446644669 -6.121156211881214
S 411.47470032041053 816.856871717843 411.47470032041053 838.1675637147628
z" fill="none" stroke="none"></path>
        <circle cx="0" cy="0" r="2.050743364160331" fill="#e91c26">
            <animateMotion begin="-1.0344455968402921s" dur="10s" repeatCount="indefinite">
                <mpath xlink:href="#path82"></mpath>
            </animateMotion>
        </circle><path id="path83" d="M 1476.4126302523723 509.867358349793
c 0 20.592185722382347 -5.038513527816956 5.914776750045994 -10.953290277862951 5.914776750045994
S 1454.5060496966462 530.4595440721754 1454.5060496966462 509.867358349793
s 5.038513527816956 -5.914776750045994 10.953290277862951 -5.914776750045994
S 1476.4126302523723 489.27517262741065 1476.4126302523723 509.867358349793
z" fill="none" stroke="none"></path>
        <circle cx="0" cy="0" r="1.8120093960088801" fill="#e91c26">
            <animateMotion begin="-9.716928829127207s" dur="10s" repeatCount="indefinite">
                <mpath xlink:href="#path83"></mpath>
            </animateMotion>
        </circle><path id="path84" d="M 1244.8819238150509 172.18897586915358
c 0 37.366669450478334 -9.142908482563847 10.732979523009734 -19.875888005573582 10.732979523009734
S 1205.1301478039036 209.5556453196319 1205.1301478039036 172.18897586915358
s 9.142908482563847 -10.732979523009734 19.875888005573582 -10.732979523009734
S 1244.8819238150509 134.82230641867525 1244.8819238150509 172.18897586915358
z" fill="none" stroke="none"></path>
        <circle cx="0" cy="0" r="2.9274891300771726" fill="#e91c26">
            <animateMotion begin="-7.048218510128512s" dur="10s" repeatCount="indefinite">
                <mpath xlink:href="#path84"></mpath>
            </animateMotion>
        </circle><path id="path85" d="M 1032.8966758151932 80.28247978224974
c 0 34.64156111362959 -8.47612665546256 9.950235639021267 -18.426362294483827 9.950235639021267
S 996.0439512262257 114.92404089587933 996.0439512262257 80.28247978224974
s 8.47612665546256 -9.950235639021267 18.426362294483827 -9.950235639021267
S 1032.8966758151932 45.640918668620145 1032.8966758151932 80.28247978224974
z" fill="none" stroke="none"></path>
        <circle cx="0" cy="0" r="2.5166527548214335" fill="#e91c26">
            <animateMotion begin="-9.5054322043046s" dur="10s" repeatCount="indefinite">
                <mpath xlink:href="#path85"></mpath>
            </animateMotion>
        </circle><path id="path86" d="M 1120.3798685575418 105.41621115602982
c 0 32.8928288059541 -8.048245346137705 9.447940188944264 -17.49618553508197 9.447940188944264
S 1085.3874974873777 138.30903996198393 1085.3874974873777 105.41621115602982
s 8.048245346137705 -9.447940188944264 17.49618553508197 -9.447940188944264
S 1120.3798685575418 72.5233823500757 1120.3798685575418 105.41621115602982
z" fill="none" stroke="none"></path>
        <circle cx="0" cy="0" r="2.752149607814683" fill="#e91c26">
            <animateMotion begin="-4.043382285827912s" dur="10s" repeatCount="indefinite">
                <mpath xlink:href="#path86"></mpath>
            </animateMotion>
        </circle><path id="path87" d="M 1461.8746582077542 524.1485745102678
c 0 31.393973979153657 -7.681504271495043 9.017418057842008 -16.69892232933705 9.017418057842008
S 1428.4768135490804 555.5425484894215 1428.4768135490804 524.1485745102678
s 7.681504271495043 -9.017418057842008 16.69892232933705 -9.017418057842008
S 1461.8746582077542 492.7546005311142 1461.8746582077542 524.1485745102678
z" fill="none" stroke="none"></path>
        <circle cx="0" cy="0" r="1.6328639840665193" fill="#e91c26">
            <animateMotion begin="-6.459400552480901s" dur="10s" repeatCount="indefinite">
                <mpath xlink:href="#path87"></mpath>
            </animateMotion>
        </circle><path id="path88" d="M 1698.4321778265585 297.2744733845192
c 0 20.68319981233024 -5.060782932804207 5.940919095031027 -11.001702027835234 5.940919095031027
S 1676.4287737708878 317.95767319684944 1676.4287737708878 297.2744733845192
s 5.060782932804207 -5.940919095031027 11.001702027835234 -5.940919095031027
S 1698.4321778265585 276.5912735721889 1698.4321778265585 297.2744733845192
z" fill="none" stroke="none"></path>
        <circle cx="0" cy="0" r="2.892758321572005" fill="#e91c26">
            <animateMotion begin="-9.269999584108454s" dur="10s" repeatCount="indefinite">
                <mpath xlink:href="#path88"></mpath>
            </animateMotion>
        </circle><path id="path89" d="M 901.803811361687 658.495285187775
c 0 20.6202202999714 -5.045373052120661 5.922829235098168 -10.96820228721883 5.922829235098168
S 879.8674067872495 679.1155054877464 879.8674067872495 658.495285187775
s 5.045373052120661 -5.922829235098168 10.96820228721883 -5.922829235098168
S 901.803811361687 637.8750648878037 901.803811361687 658.495285187775
z" fill="none" stroke="none"></path>
        <circle cx="0" cy="0" r="1.8062305367412237" fill="#e91c26">
            <animateMotion begin="-7.9318326885490915s" dur="10s" repeatCount="indefinite">
                <mpath xlink:href="#path89"></mpath>
            </animateMotion>
        </circle><path id="path90" d="M 983.6493640321348 66.33086787655627
c 0 28.740573574140672 -7.032268002183355 8.255271132997853 -15.287539135181207 8.255271132997853
S 953.0742857617724 95.07144145069694 953.0742857617724 66.33086787655627
s 7.032268002183355 -8.255271132997853 15.287539135181207 -8.255271132997853
S 983.6493640321348 37.5902943024156 983.6493640321348 66.33086787655627
z" fill="none" stroke="none"></path>
        <circle cx="0" cy="0" r="2.740802037295552" fill="#e91c26">
            <animateMotion begin="-3.735028242416254s" dur="10s" repeatCount="indefinite">
                <mpath xlink:href="#path90"></mpath>
            </animateMotion>
        </circle><path id="path91" d="M 1635.657543034205 813.4811544950895
c 0 28.360925298053967 -6.939375338885544 8.146223223909118 -15.085598562794662 8.146223223909118
S 1605.4863459086155 841.8420797931435 1605.4863459086155 813.4811544950895
s 6.939375338885544 -8.146223223909118 15.085598562794662 -8.146223223909118
S 1635.657543034205 785.1202291970355 1635.657543034205 813.4811544950895
z" fill="none" stroke="none"></path>
        <circle cx="0" cy="0" r="1.9435964863662387" fill="#e91c26">
            <animateMotion begin="-4.981341813890008s" dur="10s" repeatCount="indefinite">
                <mpath xlink:href="#path91"></mpath>
            </animateMotion>
        </circle><path id="path92" d="M 433.5749504599478 197.41326188305155
c 0 29.01824124555229 -7.100207964337262 8.335026740743743 -15.435234705081005 8.335026740743743
S 402.7044810497857 226.43150312860382 402.7044810497857 197.41326188305155
s 7.100207964337262 -8.335026740743743 15.435234705081005 -8.335026740743743
S 433.5749504599478 168.39502063749927 433.5749504599478 197.41326188305155
z" fill="none" stroke="none"></path>
        <circle cx="0" cy="0" r="2.2992025654635224" fill="#e91c26">
            <animateMotion begin="-6.143950955366819s" dur="10s" repeatCount="indefinite">
                <mpath xlink:href="#path92"></mpath>
            </animateMotion>
        </circle><path id="path93" d="M 287.58463938678386 201.92317799504542
c 0 28.75531713603774 -7.035875469456042 8.25950598588318 -15.295381455339223 8.25950598588318
S 256.9938764761054 230.67849513108317 256.9938764761054 201.92317799504542
s 7.035875469456042 -8.25950598588318 15.295381455339223 -8.25950598588318
S 287.58463938678386 173.16786085900767 287.58463938678386 201.92317799504542
z" fill="none" stroke="none"></path>
        <circle cx="0" cy="0" r="1.9986812379806862" fill="#e91c26">
            <animateMotion begin="-3.389600874771903s" dur="10s" repeatCount="indefinite">
                <mpath xlink:href="#path93"></mpath>
            </animateMotion>
        </circle><path id="path94" d="M 727.2760920844472 540.6055845354834
c 0 24.994566789182585 -6.11569187394893 7.179290460722658 -13.294982334671587 7.179290460722658
S 700.6861274151041 565.6001513246661 700.6861274151041 540.6055845354834
s 6.11569187394893 -7.179290460722658 13.294982334671587 -7.179290460722658
S 727.2760920844472 515.6110177463008 727.2760920844472 540.6055845354834
z" fill="none" stroke="none"></path>
        <circle cx="0" cy="0" r="2.172545275088494" fill="#e91c26">
            <animateMotion begin="-5.058858709566605s" dur="10s" repeatCount="indefinite">
                <mpath xlink:href="#path94"></mpath>
            </animateMotion>
        </circle><path id="path95" d="M 1346.5738220790374 596.820726261264
c 0 30.56271963274435 -7.478112250565106 8.778653511532951 -16.25676576209806 8.778653511532951
S 1314.0602905548415 627.3834458940083 1314.0602905548415 596.820726261264
s 7.478112250565106 -8.778653511532951 16.25676576209806 -8.778653511532951
S 1346.5738220790374 566.2580066285196 1346.5738220790374 596.820726261264
z" fill="none" stroke="none"></path>
        <circle cx="0" cy="0" r="1.8299255205632092" fill="#e91c26">
            <animateMotion begin="-5.665163524229497s" dur="10s" repeatCount="indefinite">
                <mpath xlink:href="#path95"></mpath>
            </animateMotion>
        </circle><path id="path96" d="M 723.1004823505772 353.55621536395284
c 0 34.20964748328164 -8.370445660802954 9.8261753409426 -18.19662100174555 9.8261753409426
S 686.707240347086 387.7658628472345 686.707240347086 353.55621536395284
s 8.370445660802954 -9.8261753409426 18.19662100174555 -9.8261753409426
S 723.1004823505772 319.3465678806712 723.1004823505772 353.55621536395284
z" fill="none" stroke="none"></path>
        <circle cx="0" cy="0" r="1.7548477999854568" fill="#e91c26">
            <animateMotion begin="-6.139871567222858s" dur="10s" repeatCount="indefinite">
                <mpath xlink:href="#path96"></mpath>
            </animateMotion>
        </circle><path id="path97" d="M 1281.7389875534925 649.9418456963932
c 0 36.965755781492405 -9.044812584833247 10.617823469152073 -19.66263605398532 10.617823469152073
S 1242.4137154455218 686.9076014778856 1242.4137154455218 649.9418456963932
s 9.044812584833247 -10.617823469152073 19.66263605398532 -10.617823469152073
S 1281.7389875534925 612.9760899149009 1281.7389875534925 649.9418456963932
z" fill="none" stroke="none"></path>
        <circle cx="0" cy="0" r="1.8972320844686934" fill="#e91c26">
            <animateMotion begin="-1.2496059372606472s" dur="10s" repeatCount="indefinite">
                <mpath xlink:href="#path97"></mpath>
            </animateMotion>
        </circle><path id="path98" d="M 1630.079724762006 651.309577752932
c 0 29.463014919271348 -7.209035565353627 8.462780881067303 -15.67181644642093 8.462780881067303
S 1598.736091869164 680.7725926722034 1598.736091869164 651.309577752932
s 7.209035565353627 -8.462780881067303 15.67181644642093 -8.462780881067303
S 1630.079724762006 621.8465628336606 1630.079724762006 651.309577752932
z" fill="none" stroke="none"></path>
        <circle cx="0" cy="0" r="2.568274714465196" fill="#e91c26">
            <animateMotion begin="-7.825904966918451s" dur="10s" repeatCount="indefinite">
                <mpath xlink:href="#path98"></mpath>
            </animateMotion>
        </circle><path id="path99" d="M 1136.2015287512338 299.06530054831984
c 0 37.081967292264835 -9.07324731619246 10.651203371182454 -19.72445068737491 10.651203371182454
S 1096.752627376484 336.1472678405847 1096.752627376484 299.06530054831984
s 9.07324731619246 -10.651203371182454 19.72445068737491 -10.651203371182454
S 1136.2015287512338 261.983333256055 1136.2015287512338 299.06530054831984
z" fill="none" stroke="none"></path>
        <circle cx="0" cy="0" r="2.9632275030547346" fill="#e91c26">
            <animateMotion begin="-9.290409198633725s" dur="10s" repeatCount="indefinite">
                <mpath xlink:href="#path99"></mpath>
            </animateMotion>
        </circle></g>
</svg>
