<svg xmlns="http://www.w3.org/2000/svg" xmlns:xlink="http://www.w3.org/1999/xlink" version="1.1" id="Layer_1" x="0px" y="0px" viewBox="0 0 605 501" style="enable-background:new 0 0 605 501;" xml:space="preserve">
<style type="text/css">
	.st0{opacity:0.22;fill:#7F7F7F;enable-background:new    ;}
	.st1{fill:#900302;}
	.st2{fill:#B22D2D;}
	.st3{fill:none;stroke:#900302;stroke-width:7.19;stroke-miterlimit:10;}
	.st4{fill:#C14949;}
	.st5{fill:#FFE1E1;}
	.st6{fill:#FFFFFF;}
	.st7{fill:#F27C7C;}
	.st8{opacity:0.34;fill:#561313;enable-background:new    ;}
	.st9{fill:#D86A6A;}
	.st10{fill:#9E2D2D;}
	.st11{fill:#B23636;}
	.st12{fill:#8E2525;}
	.st13{fill:#992B2B;}
	.st14{fill:#FEFEFE;}
	.st15{fill:none;stroke:#707070;stroke-width:3.595;stroke-miterlimit:10;}
	.st16{fill:#FFA1A1;}
	.st17{fill:#F7FBFC;}
	.st18{fill:#FFD0B5;}
	.st19{fill:#7C0404;}
	.st20{fill:#DB6565;}
	.st21{fill:#DD6B6B;}
	.st22{fill:#EDBBA2;}
	.st23{fill:#540C00;}
</style>
<g id="Group_4747" transform="translate(-5387.684 -711.781)">
	<ellipse id="Ellipse_31" class="st0" cx="5918.4" cy="1168.6" rx="68.3" ry="13.1"/>
	<g id="Group_4758" transform="translate(5391.28 711.781)">
		<g id="Group_4747-2" transform="translate(4.233 141.394)">
			<path id="Path_1750" class="st1" d="M91.1,108.1c-4.4-1.2-11.3-12.3-17-12.8s-12.6,6.2-18.4,2s-6.4-22.4-13-26.1     s-11.7,0.4-14.2-3.8s0.8-18.9-5.2-24s-10.9-3.4-12-7.9s2.4-11.6-2.4-18.4S2,1.8,9.2,5.8s13.6,9.1,20.9,7.5S36,24,41.2,27     s12.8-2,17,0.6s4.5,16.6,8,18s17.4-8.4,24-5.7s-1.5,20.4,5.5,23s15.5,6,15.5,6L91.1,108.1z"/>
			<path id="Path_1751" class="st2" d="M19.8,22.4c0,0,7.9,25.9,78.3,71.1l4.5-7.3C102.6,86.2,45.7,61.4,19.8,22.4z"/>
		</g>
		<path id="Path_1752" class="st3" d="M18.9,297.4c-15.7,10.5-24.6,62.4,5.8,63.4c21,0.7,29.2-18.2,21.3-24    C26.2,322,3.2,373.9,26.2,384.4c10.9,4.9,21.9-2.9,33.8-12.5c18.2-14.7,38.4-33.4,63.1-16.3"/>
		<path id="Path_1753" class="st0" d="M399.9,458.9c0,4.1-13.7,7.5-30.6,7.5s-30.6-3.3-30.6-7.5s13.7-7.5,30.6-7.5    S399.9,454.8,399.9,458.9z"/>
		<path id="Path_1754" class="st0" d="M225.4,488.3c0,4.1-13.7,7.5-30.6,7.5s-30.6-3.3-30.6-7.5s13.7-7.5,30.6-7.5    S225.4,484.2,225.4,488.3z"/>
		<path id="Path_1755" class="st0" d="M460.6,442.8H112.5c-12.2,0-24.2-1.8-35.9-5.4l-54.1-16.5H556l-62.4,17.4    C482.8,441.3,471.8,442.8,460.6,442.8z"/>
		<path id="Path_1756" class="st4" d="M475.3,173.3L475.3,173.3l-162.6-90c-16.9-9.3-37.3-9.3-54.2,0l-162.7,90l0,0    c-7.4,4-12,11.8-12,20.3v226.4c0,12.7,10.3,23.1,23.1,23.1c0,0,0,0,0,0h357.4c12.7,0,23.1-10.3,23.1-23.1l0,0V193.5    C487.4,185.1,482.8,177.3,475.3,173.3z"/>
		<g id="Group_4748" transform="translate(175.698)">
			<path id="Path_1757" class="st1" d="M4.4,74.6c1.9-4.2,13.9-9.3,15.3-14.8s-4.2-13.4,0.9-18.5s23.2-2.8,27.8-8.8s1.4-11.6,6-13.4     S73,22.7,79,17.6S84.1,7.4,88.7,7s11.1,4.2,18.5,0.5s16.2-4.2,11.1,2.3s-11.1,12-10.6,19.4S96.1,33.4,92.4,38s0,13-3.2,16.7     s-17.1,1.9-19,5.1s5.6,18.5,1.9,24.5s-19.9-4.6-23.6,1.9s-8.3,14.4-8.3,14.4L4.4,74.6z"/>
			<path id="Path_1758" class="st2" d="M100.3,17.6c0,0-26.9,3.7-82.4,66.2l6.5,5.6C24.4,89.4,57.7,37.1,100.3,17.6z"/>
		</g>
		<path id="Rectangle_683" class="st5" d="M174.3,68.8h222.6c24.5,0,44.3,19.9,44.3,44.3l0,0v273.2l0,0H130l0,0V113.2    C130,88.7,149.8,68.8,174.3,68.8z"/>
		<g id="Group_4749" transform="translate(165.022 110.982)">
			<rect id="Rectangle_684" x="4.4" y="4.7" class="st6" width="232.3" height="1.8"/>
			<rect id="Rectangle_685" x="4.4" y="30.4" class="st6" width="232.3" height="1.8"/>
			<rect id="Rectangle_686" x="4.4" y="56.1" class="st6" width="232.3" height="1.8"/>
			<rect id="Rectangle_687" x="4.4" y="81.8" class="st6" width="232.3" height="1.8"/>
			<rect id="Rectangle_688" x="4.4" y="107.4" class="st6" width="232.3" height="1.8"/>
			<rect id="Rectangle_689" x="4.4" y="133.1" class="st6" width="232.3" height="1.8"/>
			<rect id="Rectangle_690" x="4.4" y="158.8" class="st6" width="232.3" height="1.8"/>
			<rect id="Rectangle_691" x="4.4" y="184.5" class="st6" width="232.3" height="1.8"/>
		</g>
		<path id="Path_1759" class="st7" d="M453.5,218L283.7,387.8c-0.4,0.4-1,0.4-1.3,0L112.5,218c-7.6-7.6-17.9-11.9-28.6-11.9l0,0    v213.8c0,12.7,10.3,23.1,23.1,23.1c0,0,0,0,0,0h357.4c12.7,0,23.1-10.3,23.1-23.1l0,0V206.1h-5.2    C471.4,206.1,461.1,210.4,453.5,218z"/>
		<path id="Path_1760" class="st8" d="M343.1,328.4l-59.4,59.4c-0.4,0.4-1,0.4-1.3,0c0,0,0,0,0,0l-58.5-58.5l-140,82.5l0,8.1    c0,12.7,10.3,23.1,23.1,23.1c0,0,0,0,0,0h357.4c12.7,0,23.1-10.3,23.1-23.1c0,0,0,0,0,0v-7.3L343.1,328.4z"/>
		<path id="Path_1761" class="st9" d="M487.4,419.9v-6.9l-174.7-96.6c-16.9-9.3-37.3-9.3-54.2,0L83.9,413.1v6.9    c0,12.7,10.3,23.1,23.1,23.1c0,0,0,0,0,0h357.4C477.1,443,487.4,432.7,487.4,419.9L487.4,419.9z"/>
		<g id="Group_4750" transform="translate(326.677 389.111)">
			<path id="Path_1762" class="st10" d="M72,26.6c0,4.3,0.7-2.7,13.9-2.7c10,0,0.9,26.2-15,27.1c0,0-3.4,1.1-2.7,5.5     S97,50.7,97,27.3C97,11.5,72,14.7,72,26.6z"/>
			<path id="Path_1763" class="st11" d="M4.4,11C4.4,11,6.3,72,44.7,72C79.4,72,83.3,11,83.3,11H4.4z"/>
			<path id="Path_1764" class="st12" d="M16.2,17.8c-2.9-0.3-5.7-0.9-8.5-1.8C9.3,30.9,16.1,72.2,44.7,72c1.8,0,3.6-0.2,5.3-0.5     C24.5,66.8,17.9,32.6,16.2,17.8z"/>
			<path id="Path_1765" class="st13" d="M83.3,11c0,3.5-17.7,6.3-39.4,6.3S4.4,14.5,4.4,11s17.7-6.3,39.4-6.3S83.3,7.6,83.3,11z"/>
			<ellipse id="Ellipse_32" class="st14" cx="43.9" cy="11" rx="35.2" ry="4.9"/>
			<path id="Path_1766" class="st12" d="M16.6,14.1c18.1,2.4,36.5,2.4,54.6,0C53.1,11.7,34.7,11.7,16.6,14.1z"/>
		</g>
		<g id="Group_4753" transform="translate(4.304 132.818)">
			<path id="Path_1767" class="st9" d="M124.9,4.9C88.7,7.7,53.6,43.7,46.8,51c-7,7.2-41.2,44-42.3,80.2     c-0.6,21.1,13.9,41.8,22.8,48.6l40.8-51.3c0,0-6.6-6.6-21-10.6c0,0,3.6-18.4,25.7-41.6c20.8-21.9,40.9-28.3,40.9-28.3     c4.7,14.2,11.6,20.5,11.6,20.5l49.3-43.3C167.2,16.8,145.9,3.2,124.9,4.9z"/>
			<g id="Group_4751" transform="translate(13.76 117.062)">
				<path id="Path_1768" class="st11" d="M53.9,11.1l-7.3-5.5c-4.8-3.7-17.7,4.8-28.9,19.1S1.4,53.6,6.2,57.3l7.3,5.5L53.9,11.1z"/>
				<path id="Path_1769" class="st11" d="M42.4,43.7C31.3,58,18.3,66.5,13.5,62.8S13.9,44.4,25,30.2S49.1,7.4,53.9,11.1      S53.5,29.5,42.4,43.7z"/>
				<path id="Path_1770" class="st15" d="M13.5,62.8C8.7,59,13.9,44.4,25,30.2S49.1,7.4,53.9,11.1"/>
			</g>
			<g id="Group_4752" transform="translate(113.832 12.385)">
				<path id="Path_1771" class="st11" d="M60.9,13l-6.1-6.7c-4-4.6-18.3,1.4-31.9,13.3S1.5,45,5.5,49.6l6.1,6.7L60.9,13z"/>
				<path id="Path_1772" class="st11" d="M43.5,42.9C29.9,54.9,15.7,60.9,11.6,56.3s3.8-18,17.4-29.9S56.9,8.4,60.9,13      S57.2,31,43.5,42.9z"/>
				<path id="Path_1773" class="st15" d="M11.6,56.3c-4-4.6,3.8-18,17.4-29.9S56.9,8.4,60.9,13"/>
			</g>
			<path id="Path_1774" class="st16" d="M9.7,112.9c0,0,24.3-67.4,92.3-99.3C102,13.6,47.6,38.5,9.7,112.9z"/>
			<path id="Path_1775" class="st11" d="M113.2,46c0,0-19.4,2.3-47.7,28c-20,18.2-29.5,43.7-29.5,43.7c2.6-0.6,5.3-0.6,7.9-0.3     C65.6,62.5,113.4,46.8,113.2,46L113.2,46z"/>
		</g>
		<g id="Group_4754" transform="translate(42.201 52.777)">
			<path id="Path_1776" class="st11" d="M44.6,36c0.2,1.3,0.6,2.6,1,3.8c0.2,0.8,0.6,1.5,1.2,2.1c0.3,0.4,0.8,0.6,1.4,0.7     c0.6,0,1.1-0.2,1.6-0.4c1-0.6,1.8-1.5,2.1-2.7c0.4-1.5,0.6-3,0.5-4.5c-0.1-2-0.5-3.9-1.1-5.8c-0.7-2.2-1.6-4.3-2.7-6.4     c-1.2-2.3-2.7-4.4-4.6-6.2c-1.6-1.5-3.5-2.7-5.6-3.4c-2.1-0.7-4.2-0.8-6.4-0.5c-2.4,0.4-4.8,1.2-6.9,2.4     c-3.1,1.6-5.8,3.9-7.8,6.8c-2,2.8-3.3,6-4,9.4c-0.7,3.6-0.7,7.3-0.1,11c0.7,4,2,7.9,4,11.5c1.5,2.9,3.5,5.6,5.8,7.9     c2,1.9,4.4,3.4,7,4.3c2.5,0.8,5.1,1.1,7.8,0.8c2.9-0.4,5.7-1.3,8.2-2.7c1.7-0.9,3.2-1.8,4.8-2.9c1.3-0.9,2.4-1.8,3.6-2.9     c0.9-0.8,1.7-1.7,2.5-2.6c0.6-0.6,1-1.3,1.5-2.1c0.4-0.6,0.9-1.1,1.5-1.5c0.4-0.3,0.9-0.5,1.3-0.5c0.4,0,0.8,0,1.2,0.2     c0.4,0.2,0.7,0.4,1,0.7l2.4,2.6c-0.8,1.5-1.8,3-2.8,4.4c-1.1,1.5-2.4,2.9-3.7,4.3c-1.5,1.5-3,2.8-4.7,4c-1.8,1.3-3.7,2.5-5.7,3.6     c-3.6,2-7.5,3.2-11.5,3.7c-3.6,0.4-7.3,0-10.8-1.1c-3.5-1.2-6.8-3.1-9.5-5.6c-3.1-2.8-5.6-6.2-7.5-9.9c-1.6-3-2.8-6.2-3.6-9.5     c-0.8-3.2-1.2-6.5-1.2-9.7c0-3.2,0.4-6.4,1.2-9.5c0.8-3,1.9-6,3.4-8.7c1.5-2.7,3.4-5.2,5.5-7.4c2.2-2.3,4.8-4.2,7.6-5.6     c2.9-1.6,6.1-2.6,9.4-2.9c3.2-0.4,6.4-0.1,9.4,0.8c3.1,0.9,6,2.5,8.5,4.6c2.7,2.3,5,5.2,6.6,8.4c1.6,2.9,2.7,6.1,3.3,9.4     c0.5,3,0.6,6,0.1,9c-0.4,2.7-1.4,5.3-2.9,7.7C55,47,53,48.8,50.7,50.1c-0.7,0.4-1.4,0.6-2.2,0.8c-0.7,0.2-1.5,0.3-2.2,0.2     c-0.8-0.1-1.5-0.3-2.2-0.6c-0.8-0.4-1.5-0.9-2.1-1.6c-0.5,2.1-1.5,4.2-2.9,5.9c-1.2,1.5-2.7,2.7-4.4,3.6c-1.2,0.7-2.5,1-3.8,1.1     c-1.2,0.1-2.4-0.2-3.4-0.6c-1.1-0.5-2.1-1.2-3-2.1c-1-1-1.8-2.1-2.4-3.4c-0.8-1.6-1.4-3.2-1.9-4.9c-0.4-1.8-0.7-3.7-0.7-5.5     c0-1.9,0.2-3.8,0.7-5.7c0.5-2,1.2-3.8,2.2-5.6c1.1-1.9,2.4-3.6,4-5.1c1.8-1.7,3.8-3.1,5.9-4.2c1-0.5,2-1,2.8-1.4     c0.8-0.3,1.6-0.6,2.4-0.9c0.7-0.2,1.5-0.4,2.2-0.5c0.7-0.1,1.5-0.2,2.3-0.2L44.6,36z M34.9,29.6c-0.6,0.2-1.1,0.4-1.6,0.7     c-1.2,0.7-2.3,1.7-3,2.9c-0.8,1.3-1.4,2.8-1.7,4.4c-0.3,1.7-0.4,3.4-0.1,5.1c0.2,1.8,0.8,3.5,1.6,5.1c1.2,2.3,2.6,3,4.1,2.2     c1.1-0.6,1.8-1.5,2.2-2.6c0.3-0.8,0.4-1.6,0.4-2.4c0-1.1-0.1-2.2-0.3-3.2L34.9,29.6z"/>
		</g>
		<circle id="Ellipse_33" class="st11" cx="197.6" cy="440.6" r="49.5"/>
		<path id="Path_1777" class="st17" d="M205.2,420.2c6.2,0,11.2-5,11.2-11.2s-5-11.2-11.2-11.2s-11.2,5-11.2,11.2    S199.1,420.2,205.2,420.2L205.2,420.2z M201,472.7c-3.9-3.6,14.5-34.3,12.1-44.3c-1.8-7.3-31.1-2.5-31.4-0.4c0,0,8.4-1.1,10,2.9    s-10,27.5-12.1,36.4s7.8,11.8,14.5,11.8c7.8,0,20.5-5.4,20.2-7.9S204.9,476.3,201,472.7L201,472.7z"/>
		<g id="Group_4755" transform="translate(431.93 45.426)">
			<path id="Path_1778" class="st11" d="M49.2,20.3v-1.1c0-8-6.5-14.5-14.5-14.5H18.9c-8,0-14.5,6.5-14.5,14.5v1.1     c0,8,6.5,14.5,14.5,14.5h15.9c0.2,0,0.4,0,0.6,0c2.8,4.4,7.7,7.2,13,7.3c-3.4-1.9-5.8-5.3-6.4-9.2C46.4,30.3,49.2,25.5,49.2,20.3     z"/>
			<path id="Path_1779" class="st14" d="M20.6,19.8c0,1.3-1.1,2.4-2.4,2.4c-1.3,0-2.4-1.1-2.4-2.4s1.1-2.4,2.4-2.4l0,0     C19.5,17.4,20.6,18.5,20.6,19.8z"/>
			<path id="Path_1780" class="st14" d="M29.4,19.8c0,1.3-1.1,2.4-2.4,2.4c-1.3,0-2.4-1.1-2.4-2.4s1.1-2.4,2.4-2.4c0,0,0,0,0,0     C28.4,17.4,29.4,18.5,29.4,19.8z"/>
			<path id="Path_1781" class="st14" d="M38.3,19.8c0,1.3-1.1,2.4-2.4,2.4c-1.3,0-2.4-1.1-2.4-2.4s1.1-2.4,2.4-2.4c0,0,0,0,0,0     C37.2,17.4,38.3,18.5,38.3,19.8z"/>
		</g>
		<g id="Group_4757" transform="translate(396.885 57.023)">
			<path id="Path_1782" class="st18" d="M22.8,86.3c0,0-3.9-12.7-6.2-14.1S5,66.2,4.5,67.5s5,7.3,6.3,9.3s1.9,4,1,3.1     s-5.6-3.8-6.1-3.1s2.4,3.1,3.7,5.1s2.9,5.3,7.7,6.1S22.8,86.3,22.8,86.3z"/>
			<path id="Path_1783" class="st18" d="M166.4,193.3c0,0-1.2,11.5-2.5,13.7s-6.8,9.1-9.2,10.5s1.4-9.1,1-11.2s-1.9,3.7-3,3.9     s-0.8-5.1-0.8-7s5-6.6,6.8-10.6S166.4,193.3,166.4,193.3z"/>
			<path id="Path_1784" class="st19" d="M130.4,75.5c0,0-9.5,46.9-62.1,62.2c-16.4,4.8-53.7-49.2-53.7-49.2s1.3-5,9.5-3.8     c0,0,36.3,24,40.9,26.6c4.1,2.3,30.7-29.8,42.9-34.9C115,73.2,123.1,72.9,130.4,75.5z"/>
			<g id="Group_4756" transform="translate(70.418 176.84)">
				<path id="Path_1785" class="st11" d="M122.7,193.3c0,0,6.5,5.9,5.2,10.2s-7.2,7-8,12.2s-4,8-6.8,8H99.6c0,0-2.1-3.6,3-4.7      s7-7.2,6.7-12.8c-0.1-4.4,0-8.8,0.5-13.2l10.8-2.5L122.7,193.3z"/>
				<path id="Path_1786" class="st11" d="M42.8,208.7c0,0,1.2,13.5-1.7,14.9l-36.6-0.1c0,0,0-4.2,5.9-5.2s16.2-4.4,18-12.1      S42.8,208.7,42.8,208.7z"/>
				<path id="Path_1787" class="st20" d="M11.8,17.4c0,0,1.9,23.7,4.2,52.3c3.1,38.8,6.8,86.4,7.2,95.4c0.6,15.7,3.2,40.7,3.2,40.7      s6,6,18.1,3.4c0,0,10.8-35.8,13.8-73.6c0-0.6,0.1-1.2,0.1-1.9c2.9-38.5,7.3-119.6,7.3-119.6L11.8,17.4z"/>
				<path id="Path_1788" class="st21" d="M11.8,17.4c0,0,1.9,23.7,4.2,52.3l42.3,65.9c0-0.6,0.1-1.2,0.1-1.9      c2.9-38.5,7.3-119.6,7.3-119.6L11.8,17.4z"/>
				<path id="Path_1789" class="st7" d="M20.7,20.2c0,0,34.8,86,57.7,126.3s30.1,51.7,30.1,51.7s13.1-5.2,14.3-8.7      c0,0-8.8-78-24.1-97c-8.7-10.7-18.8-43-19.3-54.2S76.2,4.7,76.2,4.7L20.7,20.2z"/>
			</g>
			<path id="Path_1790" class="st18" d="M136.9,64.6c0,0-23.6,11.4-37.1,7.2c2.6-3,5.7-5.5,9.2-7.4c-0.5-2.7-0.8-5.1-1-7.1     c-0.3-2.4-0.5-4.8-0.6-7.3l9.1-7.2l8.6-6.8C124.4,55.3,136.9,64.6,136.9,64.6z"/>
			<path id="Path_1791" class="st1" d="M149.3,186c0.1,1.4-3,3.1-4.4,3.7c-10.1,4.4-19.5,7.5-30.1,8.5c-12.6,1.3-27.5-1.5-32.6-1.4     c-0.5,0-1-0.2-1.4-0.6c-0.4-0.3-0.6-15.4-0.4-34.5c0-0.8,0-1.5,0.1-2.3v-0.3c0.1-7.5,0.4-15.3,0.7-23.1     c0.7-17.2,2.1-33.7,4.4-42.9c2.8-10.8,9-18,14.7-23.2l4.7-4.1c4.9,1.1,10.1,0.5,14.6-1.7c5.4-2.6,11.3-5.5,12.2-4.7     c7.1,5.2,11.9,16.9,14.5,31.8c0,0.1,0,0.1,0,0.2c1.5,9.3,2.2,18.7,2.1,28.1c0,3.7-0.1,7.5-0.3,11.3c-0.8,14.2-0.7,28.5,0.3,42.7     c0.1,2.1,0.3,4,0.4,5.7C149.1,182,149.3,184.3,149.3,186z"/>
			<path id="Path_1792" class="st19" d="M148.5,173.4c-39.1-45.1-14.8-77.9-14.8-77.9l12.7-4.1c1.5,9.3,2.2,18.7,2.1,28.1     c0,3.7-0.1,7.5-0.3,11.3C147.4,145,147.5,159.2,148.5,173.4z"/>
			<path id="Path_1793" class="st22" d="M125.2,43.4c0,0-6,10.9-17.3,13.9c-0.3-2.4-0.5-4.8-0.6-7.3l9.1-7.2L125.2,43.4z"/>
			<path id="Path_1794" class="st18" d="M103.2,49.8c0,0,22.5,3.7,24.6-10.1s6.4-22.6-7.8-25.6s-17.9,1.9-19.7,6.4     S97.4,48.4,103.2,49.8z"/>
			<path id="Path_1795" class="st23" d="M135.9,12.4c0.2-0.2,0.7-0.4,1.7-0.5c-0.6-0.3-1.3-0.5-2-0.6c-0.2-1.5-1-4-3.5-4.7     c0.8,0.5,1.4,1.3,1.5,2.3c-2.9-3-9.1-5.2-26.3-3.8C84.7,7,92.2,21.5,95.1,23.2s10.3-3,15.8-2.6s6.5,8.3,8.4,9.4s1.1-0.8,3.6-2     s2.8,3,2,5.7s2.7,6.3,2.7,6.3l3.5-3.8c3.5-3.8,6.8-19.7,5.2-23.1C136.2,13,136.1,12.7,135.9,12.4z"/>
			<path id="Path_1796" class="st1" d="M131.9,59.3c0,0,14.2,6.7,21,17.1c10.6,16.1,22.8,74.6,23.1,80s-8.9,43.7-8.9,43.7     s-9.3-0.6-11.7-5.3c0,0,1.9-39.3,0.7-41.8s-38.8-52.7-34.6-63.4S131.9,59.3,131.9,59.3z"/>
		</g>
	</g>
</g>
</svg>